<svg width="21" height="21" viewBox="0 0 21 21" fill="none" xmlns="http://www.w3.org/2000/svg">
<path d="M0.5 1.92857C0.5 1.13959 1.13959 0.5 1.92857 0.5C2.71755 0.5 3.35714 1.13959 3.35714 1.92857C3.35714 2.71755 2.71755 3.35714 1.92857 3.35714C1.13959 3.35714 0.5 2.71755 0.5 1.92857ZM6.21429 4.78571C6.21429 5.57469 5.57469 6.21429 4.78571 6.21429C3.99674 6.21429 3.35714 5.57469 3.35714 4.78571C3.35714 3.99674 3.99674 3.35714 4.78571 3.35714C5.57469 3.35714 6.21429 3.99674 6.21429 4.78571ZM9.07143 7.64286C9.07143 8.43184 8.43184 9.07143 7.64286 9.07143C6.85388 9.07143 6.21429 8.43184 6.21429 7.64286C6.21429 6.85388 6.85388 6.21429 7.64286 6.21429C8.43184 6.21429 9.07143 6.85388 9.07143 7.64286ZM11.9286 10.5C11.9286 9.71102 11.289 9.07143 10.5 9.07143C9.71102 9.07143 9.07143 9.71102 9.07143 10.5C9.07143 11.289 8.43184 11.9286 7.64286 11.9286C6.85388 11.9286 6.21429 12.5682 6.21429 13.3571C6.21429 14.1461 5.57469 14.7857 4.78571 14.7857C3.99674 14.7857 3.35714 15.4253 3.35714 16.2143C3.35714 17.0033 2.71755 17.6429 1.92857 17.6429C1.13959 17.6429 0.5 18.2825 0.5 19.0714C0.5 19.8604 1.13959 20.5 1.92857 20.5C2.71755 20.5 3.35714 19.8604 3.35714 19.0714C3.35714 18.2825 3.99674 17.6429 4.78571 17.6429C5.57469 17.6429 6.21429 17.0033 6.21429 16.2143C6.21429 15.4253 6.85388 14.7857 7.64286 14.7857C8.43184 14.7857 9.07143 14.1461 9.07143 13.3571C9.07143 12.5682 9.71102 11.9286 10.5 11.9286C11.289 11.9286 11.9286 12.5682 11.9286 13.3571C11.9286 14.1461 12.5682 14.7857 13.3571 14.7857C14.1461 14.7857 14.7857 15.4253 14.7857 16.2143C14.7857 17.0033 15.4253 17.6429 16.2143 17.6429C17.0033 17.6429 17.6429 18.2825 17.6429 19.0714C17.6429 19.8604 18.2825 20.5 19.0714 20.5C19.8604 20.5 20.5 19.8604 20.5 19.0714C20.5 18.2825 19.8604 17.6429 19.0714 17.6429C18.2825 17.6429 17.6429 17.0033 17.6429 16.2143C17.6429 15.4253 17.0033 14.7857 16.2143 14.7857C15.4253 14.7857 14.7857 14.1461 14.7857 13.3571C14.7857 12.5682 14.1461 11.9286 13.3571 11.9286C12.5682 11.9286 11.9286 11.289 11.9286 10.5ZM13.3571 6.21429C14.1461 6.21429 14.7857 6.85388 14.7857 7.64286C14.7857 8.43184 14.1461 9.07143 13.3571 9.07143C12.5682 9.07143 11.9286 8.43184 11.9286 7.64286C11.9286 6.85388 12.5682 6.21429 13.3571 6.21429ZM16.2143 3.35714C17.0033 3.35714 17.6429 3.99674 17.6429 4.78571C17.6429 5.57469 17.0033 6.21429 16.2143 6.21429C15.4253 6.21429 14.7857 5.57469 14.7857 4.78571C14.7857 3.99674 15.4253 3.35714 16.2143 3.35714ZM19.0714 3.35714C18.2825 3.35714 17.6429 2.71755 17.6429 1.92857C17.6429 1.13959 18.2825 0.5 19.0714 0.5C19.8604 0.5 20.5 1.13959 20.5 1.92857C20.5 2.71755 19.8604 3.35714 19.0714 3.35714Z" fill="white"/>
</svg>
